<svg id="Layer_1" data-name="Layer 1" xmlns="http://www.w3.org/2000/svg" viewBox="0 0 512 512"><defs><style>.cls-1{fill:#fff;}.cls-2{fill:#0f4c81;}</style></defs><path class="cls-1" d="M0,508.6V3.4A3.4,3.4,0,0,1,3.4,0H508.6A3.4,3.4,0,0,1,512,3.4V508.59a3.4,3.4,0,0,1-3.4,3.4H3.4A3.4,3.4,0,0,1,0,508.6ZM225.63,193.07a3.42,3.42,0,0,0,3.7-1c3-3.35,2.95-4.2,2.91-10.74q-.12-18.5-.17-37c0-10.89.09-11.76-10-13.61a226.74,226.74,0,0,0-32.15-3.49c-9.94-.37-20.36-1.1-29.89,1.18-31.94,7.64-54.75,32.84-56.79,66.95-2.35,39.23,16.14,63.67,51.42,76.93,12.9,4.85,26.24,8.48,39.25,13.05,6.17,2.17,11.8,5.65,14.94,11.78,6.31,12.34-1.88,27.14-16.82,29.91-14.73,2.73-28.5,0-40.58-9.2-3.64-2.79-7.06-5.88-10.76-9.11a3.41,3.41,0,0,0-4.7.21c-11.14,11.69-22.33,23.37-33.35,35.22-.74.8-.54,3.52.26,4.54,17.3,22.19,39.4,35.21,68.19,35.17,7.33,0,14.67-.13,22,0,20.76.41,37.74-8.3,52.13-22.34,19.32-18.84,25.14-42.58,22.55-68.64-1.34-13.43-6.07-26-14.89-36.44-12.27-14.56-28.47-23-46.35-28.71-11.56-3.67-23.18-7.2-34.56-11.37-7.84-2.87-12-9.44-11.65-16.34s5.61-13.25,13-16,14.82-3.51,22.07-1.43C205.36,185.5,215.14,189.34,225.63,193.07Zm73.29-6.41V380.22a3.41,3.41,0,0,0,3.4,3.4h50.29a3.4,3.4,0,0,0,3.4-3.4V186.45a3.4,3.4,0,0,1,3.4-3.4h47a3.4,3.4,0,0,0,3.4-3.4v-48a3.4,3.4,0,0,0-3.4-3.4H268.86a3.4,3.4,0,0,0-3.4,3.4v48.21a3.4,3.4,0,0,0,3.4,3.4h26.66A3.4,3.4,0,0,1,298.92,186.66Z"/><path class="cls-2" d="M227.76,193.83c-11.3-4-21.72-8.13-32.45-11.21-7.25-2.08-14.82-1.31-22.07,1.43s-12.62,9.09-13,16,3.81,13.47,11.65,16.34c11.38,4.17,23,7.7,34.56,11.37,17.88,5.67,34.08,14.15,46.35,28.71,8.82,10.46,13.55,23,14.89,36.44,2.59,26.06-3.23,49.8-22.55,68.64-14.39,14-31.37,22.75-52.13,22.34-7.32-.14-14.66,0-22,0-28.79,0-50.89-13-68.19-35.17-.8-1-1-3.74-.26-4.54,11.75-12.64,23.71-25.1,35.59-37.56,4.67,4,8.78,7.84,13.22,11.24,12.08,9.23,25.85,11.93,40.58,9.2,14.94-2.77,23.13-17.57,16.82-29.91-3.14-6.13-8.77-9.61-14.94-11.78-13-4.57-26.35-8.2-39.25-13.05-35.28-13.26-53.77-37.7-51.42-76.93,2-34.11,24.85-59.31,56.79-66.95,9.36-2.24,19.57-1.58,29.35-1.2a232.7,232.7,0,0,1,31.6,3.31c11.24,2,11.11,2.54,11.14,13.81q0,18.5.17,37C232.29,188.89,232.31,188.89,227.76,193.83Z"/><path class="cls-2" d="M298.92,183.26H265.46v-55H409.79v54.8H356V383.62H298.92Z"/></svg>